REM DISCID AD0BE00D
REM COMMENT "morituri 0.4.0"
FILE "data.wav" WAVE
  TRACK 01 AUDIO
    PREGAP 03:22:70
    INDEX 01 00:00:00
  TRACK 02 AUDIO
    INDEX 01 04:21:74
  TRACK 03 AUDIO
    INDEX 01 08:02:12
  TRACK 04 AUDIO
    INDEX 01 11:57:45
  TRACK 05 AUDIO
    INDEX 00 15:18:00
    INDEX 01 15:18:72
  TRACK 06 AUDIO
    INDEX 00 18:05:40
    INDEX 01 18:06:06
  TRACK 07 AUDIO
    INDEX 00 21:35:15
    INDEX 01 21:35:32
  TRACK 08 AUDIO
    INDEX 00 26:00:74
    INDEX 01 26:01:03
  TRACK 09 AUDIO
    INDEX 00 29:36:14
    INDEX 01 29:36:25
  TRACK 10 AUDIO
    INDEX 01 33:56:02
  TRACK 11 AUDIO
    INDEX 00 37:48:26
    INDEX 01 37:48:69
  TRACK 12 AUDIO
    INDEX 00 41:44:45
    INDEX 01 41:46:11
  TRACK 13 AUDIO
    INDEX 00 45:56:11
    INDEX 01 45:56:33
